<?xml version="1.0" standalone="no"?>
<!DOCTYPE svg PUBLIC "-//W3C//DTD SVG 20010904//EN"
 "http://www.w3.org/TR/2001/REC-SVG-20010904/DTD/svg10.dtd">
<svg version="1.0" xmlns="http://www.w3.org/2000/svg"
 width="16.000000pt" height="16.000000pt" viewBox="0 0 16.000000 16.000000"
 preserveAspectRatio="xMidYMid meet">
<metadata>
Created by potrace 1.11, written by Peter Selinger 2001-2013
</metadata>
<g transform="translate(0.000000,16.000000) scale(0.006154,-0.006154)"
fill="#000000" stroke="none">
<path d="M880 2587 c-14 -7 -31 -25 -38 -40 l-13 -27 -380 0 c-388 0 -407 -2
-436 -39 -10 -12 -12 -281 -13 -1183 l0 -1166 31 -26 31 -26 736 0 737 1 360
-37 c198 -21 372 -34 387 -31 15 4 34 18 43 30 11 17 47 334 135 1171 113
1072 120 1150 105 1172 -9 14 -26 29 -38 34 -20 9 -393 50 -1267 140 -162 16
-308 32 -325 35 -16 3 -41 -1 -55 -8z m-55 -144 c-11 -60 -225 -2133 -225
-2176 0 -81 12 -87 201 -108 90 -10 180 -20 199 -22 19 -2 -180 -5 -442 -5
-262 -1 -483 1 -492 4 -14 6 -16 117 -16 1163 0 637 3 1161 7 1164 3 4 179 7
389 7 l384 0 -5 -27z m1438 -745 c-6 -7 -146 -191 -313 -408 -167 -217 -313
-407 -326 -422 l-22 -27 -82 214 c-46 117 -86 219 -90 225 -5 8 -92 -39 -274
-149 -146 -88 -266 -158 -266 -156 0 7 502 676 505 673 2 -3 243 -278 254
-290 4 -4 144 73 311 171 168 99 307 179 309 180 2 1 -1 -5 -6 -11z"/>
</g>
</svg>
