<?xml version="1.0" standalone="no"?>
<!DOCTYPE svg PUBLIC "-//W3C//DTD SVG 20010904//EN"
 "http://www.w3.org/TR/2001/REC-SVG-20010904/DTD/svg10.dtd">
<svg version="1.0" xmlns="http://www.w3.org/2000/svg"
 width="16.000000pt" height="16.000000pt" viewBox="0 0 16.000000 16.000000"
 preserveAspectRatio="xMidYMid meet">
<metadata>
Created by potrace 1.11, written by Peter Selinger 2001-2013
</metadata>
<g transform="translate(0.000000,16.000000) scale(0.006154,-0.006154)"
fill="#000000" stroke="none">
<path d="M870 2570 c-11 -11 -20 -27 -20 -35 0 -12 -56 -15 -396 -17 l-396 -3
-24 -28 -24 -28 0 -1159 0 -1159 24 -28 24 -28 804 -5 803 -5 307 -34 c330
-37 348 -36 368 11 9 22 239 2177 243 2281 2 41 -2 52 -24 71 -22 19 -52 24
-245 44 -120 13 -320 34 -444 47 -540 59 -900 95 -938 95 -29 0 -48 -6 -62
-20z m-44 -227 c-28 -214 -217 -2066 -214 -2095 l4 -38 -243 0 -243 0 0 1090
0 1090 351 0 351 0 -6 -47z m1448 -645 c-30 -52 -659 -857 -664 -851 -4 5 -44
106 -90 225 -46 120 -86 216 -89 214 -3 -2 -124 -73 -268 -159 -143 -87 -264
-157 -267 -157 -4 0 109 154 250 341 l256 341 22 -23 c13 -13 71 -79 130 -146
59 -68 111 -123 116 -123 5 0 143 79 307 175 164 96 299 174 301 175 2 0 0 -6
-4 -12z"/>
</g>
</svg>
